<?xml version="1.0" encoding="UTF-8" standalone="no"?>
<!-- Created with Inkscape (http://www.inkscape.org/) -->

<svg
   xmlns:dc="http://purl.org/dc/elements/1.1/"
   xmlns:cc="http://creativecommons.org/ns#"
   xmlns:rdf="http://www.w3.org/1999/02/22-rdf-syntax-ns#"
   xmlns:svg="http://www.w3.org/2000/svg"
   xmlns="http://www.w3.org/2000/svg"
   xmlns:sodipodi="http://sodipodi.sourceforge.net/DTD/sodipodi-0.dtd"
   xmlns:inkscape="http://www.inkscape.org/namespaces/inkscape"
   width="256mm"
   height="256mm"
   viewBox="0 0 907.08661 907.08661"
   id="svg4812"
   version="1.1"
   inkscape:version="0.91 r13725"
   inkscape:export-filename="D:\Unity Projects\LD32\Assets\Sprites\rocks.png"
   inkscape:export-xdpi="25.4"
   inkscape:export-ydpi="25.4"
   sodipodi:docname="rocks.svg">
  <defs
     id="defs4814" />
  <sodipodi:namedview
     id="base"
     pagecolor="#ffffff"
     bordercolor="#666666"
     borderopacity="1.0"
     inkscape:pageopacity="0.0"
     inkscape:pageshadow="2"
     inkscape:zoom="0.7"
     inkscape:cx="329.5573"
     inkscape:cy="389.02994"
     inkscape:document-units="px"
     inkscape:current-layer="layer1"
     showgrid="false"
     inkscape:window-width="1920"
     inkscape:window-height="1017"
     inkscape:window-x="-8"
     inkscape:window-y="-8"
     inkscape:window-maximized="1" />
  <metadata
     id="metadata4817">
    <rdf:RDF>
      <cc:Work
         rdf:about="">
        <dc:format>image/svg+xml</dc:format>
        <dc:type
           rdf:resource="http://purl.org/dc/dcmitype/StillImage" />
        <dc:title></dc:title>
      </cc:Work>
    </rdf:RDF>
  </metadata>
  <g
     inkscape:label="Laag 1"
     inkscape:groupmode="layer"
     id="layer1"
     transform="translate(0,-145.27559)">
    <path
       sodipodi:type="star"
       style="opacity:1;fill:#767374;fill-opacity:1;stroke:#000000;stroke-width:4;stroke-miterlimit:4;stroke-dasharray:none;stroke-opacity:1"
       id="path5362"
       sodipodi:sides="15"
       sodipodi:cx="268.57144"
       sodipodi:cy="212.80089"
       sodipodi:r1="111.13514"
       sodipodi:r2="55.567574"
       sodipodi:arg1="0.78539816"
       sodipodi:arg2="0.99483767"
       inkscape:flatsided="true"
       inkscape:rounded="0.2"
       inkscape:randomized="0.2"
       d="m 329.91456,288.13031 c -5.52809,8.40142 -16.28186,35.50514 -23.46583,40.81161 -7.18397,5.30647 -32.22127,-17.23841 -40.90179,-15.68738 -8.68052,1.55102 -24.57028,4.62895 -31.75835,-2.01049 -7.18807,-6.63945 -56.35318,-13.4188 -61.52272,-20.82769 -5.16955,-7.40889 -25.74063,-22.1685 -26.72164,-30.5302 -0.98102,-8.3617 -12.2236,-70.33442 -8.02047,-79.40809 4.20312,-9.07366 53.77855,-12.73081 56.19285,-21.5227 2.41429,-8.79189 4.89289,-45.47021 11.4041,-51.07231 6.51122,-5.6021 54.14532,-16.527712 63.63854,-17.057741 9.49321,-0.530029 16.09773,21.696161 25.62973,23.865081 9.53201,2.16891 26.11847,11.20063 32.30985,18.81391 6.19138,7.61327 32.62,37.99677 37.41493,44.85729 4.79494,6.86051 30.8302,40.53036 29.67379,50.00602 -1.1564,9.47567 -16.42949,25.26269 -19.73233,34.39686 -3.30283,9.13417 -38.61256,16.96441 -44.14066,25.36583 z"
       transform="translate(-64.285714,108.13273)"
       inkscape:transform-center-x="6.4924056"
       inkscape:transform-center-y="-2.8265514" />
    <path
       sodipodi:type="star"
       style="opacity:1;fill:#b3b3b3;fill-opacity:1;stroke:#000000;stroke-width:4;stroke-miterlimit:4;stroke-dasharray:none;stroke-opacity:1"
       id="path5364"
       sodipodi:sides="15"
       sodipodi:cx="482.85715"
       sodipodi:cy="478.51517"
       sodipodi:r1="106.00347"
       sodipodi:r2="103.68704"
       sodipodi:arg1="0.52359878"
       sodipodi:arg2="0.73303829"
       inkscape:flatsided="true"
       inkscape:rounded="0.2"
       inkscape:randomized="0.2"
       d="m 570.57699,528.75084 c -5.2615,6.28006 -32.21349,32.7082 -40.23454,35.67054 -8.02105,2.96234 -1.89505,6.61681 -9.88434,8.9492 -7.9893,2.3324 -51.88632,3.57284 -60.41273,0.24457 -8.52642,-3.32828 -33.13638,4.32396 -41.96508,0.82946 -8.82869,-3.4945 -27.71956,-23.24214 -33.98259,-29.87153 -6.26304,-6.6294 2.59583,-39.10477 4.03334,-48.39199 1.4375,-9.28722 -1.59952,-56.05464 1.92568,-63.44101 3.5252,-7.38637 -7.65971,-17.64878 -2.81845,-25.75321 4.84125,-8.10442 52.13536,-20.03329 59.50059,-25.24151 7.36524,-5.20823 17.0503,6.32729 25.18804,6.9451 8.13774,0.61782 28.96632,-12.90778 36.94308,-9.81064 7.97676,3.09714 26.16881,42.10218 33.51333,47.50134 7.34452,5.39916 18.21223,-4.24011 23.11563,2.67817 4.90339,6.91828 43.78921,64.59538 41.71258,73.80392 -2.07663,9.20853 -31.37304,19.60754 -36.63454,25.88759 z"
       transform="translate(-42.857143,138.13274)"
       inkscape:transform-center-x="-11.730013"
       inkscape:transform-center-y="-1.4804413" />
    <path
       sodipodi:type="star"
       style="opacity:1;fill:#b3b3b3;fill-opacity:1;stroke:#000000;stroke-width:4;stroke-miterlimit:4;stroke-dasharray:none;stroke-opacity:1"
       id="path5366"
       sodipodi:sides="15"
       sodipodi:cx="497.14285"
       sodipodi:cy="217.08661"
       sodipodi:r1="56.604607"
       sodipodi:r2="55.367661"
       sodipodi:arg1="0.78539816"
       sodipodi:arg2="0.99483767"
       inkscape:flatsided="true"
       inkscape:rounded="0.2"
       inkscape:randomized="0.2"
       d="m 547.69242,249.92284 c -3.45789,3.05172 -22.97286,7.32161 -27.25575,9.90931 -4.2829,2.5877 -12.20278,17.95599 -16.81122,17.12428 -4.60844,-0.8317 -38.23155,3.52145 -42.36036,1.32316 -4.12881,-2.19828 -10.82192,-27.76965 -13.56786,-31.60985 -2.74594,-3.8402 -0.0826,0.91725 -0.89734,-4.11779 -0.81472,-5.03504 -7.44746,-29.88043 -6.71965,-34.9631 0.72782,-5.08268 0.77181,-15.92316 2.90784,-19.788 2.13603,-3.86485 8.6299,-13.82651 12.98318,-15.32556 4.35328,-1.49906 30.73436,-10.34995 35.09198,-9.89058 4.35762,0.45936 23.09555,-0.78946 28.05368,0.39774 4.95813,1.18721 2.59392,14.83832 7.10692,16.69583 4.513,1.85752 9.883,9.35245 12.65947,12.89893 2.77648,3.54649 18.81129,12.39919 20.4282,16.68857 1.6169,4.28937 -8.82969,27.43508 -11.33087,31.08606 -2.50119,3.65099 3.16966,6.51927 -0.28822,9.571 z"
       transform="translate(-78.571429,170.98988)"
       inkscape:transform-center-x="-2.609744"
       inkscape:transform-center-y="3.5934122" />
    <path
       sodipodi:type="star"
       style="opacity:1;fill:#999999;fill-opacity:1;stroke:#000000;stroke-width:4;stroke-miterlimit:4;stroke-dasharray:none;stroke-opacity:1"
       id="path5368"
       sodipodi:sides="15"
       sodipodi:cx="92.85714"
       sodipodi:cy="559.94373"
       sodipodi:r1="105.13354"
       sodipodi:r2="102.83612"
       sodipodi:arg1="0.78539816"
       sodipodi:arg2="0.99483767"
       inkscape:flatsided="true"
       inkscape:rounded="0.2"
       inkscape:randomized="0.2"
       d="m 160.82737,641.30626 c -5.27429,6.43965 -20.77258,26.55316 -27.39657,31.36822 -6.62399,4.81505 -30.60795,-5.93781 -39.11175,-6.12115 -8.503795,-0.18334 -47.153341,-11.93448 -53.121193,-17.61193 -5.967852,-5.67744 -6.827839,-5.74414 -11.135289,-13.27633 -4.30745,-7.53219 -34.4458988,-26.15924 -34.2532871,-34.37093 0.1926117,-8.21169 -0.8075975,-38.03153 -0.9521687,-46.36877 -0.1445711,-8.33725 0.2153727,-62.40605 6.2606643,-69.6633 6.0452915,-7.25726 19.3769525,0.0166 25.8289415,-6.35449 6.451989,-6.37112 52.323269,-31.5778 60.134635,-34.82947 7.811366,-3.25168 8.532292,30.02377 16.068837,34.86682 7.53654,4.84304 64.65613,-2.96704 72.71318,0.64672 8.05704,3.61377 -12.99371,17.65367 -7.8094,23.89908 5.1843,6.24541 6.33821,52.06492 9.0099,60.40609 2.6717,8.34118 -0.46338,29.99945 -1.3208,38.53923 -0.85742,8.53978 -9.64142,32.43056 -14.9157,38.87021 z"
       transform="translate(115.7143,253.84702)"
       inkscape:transform-center-x="6.4279678"
       inkscape:transform-center-y="-1.0592387" />
    <path
       sodipodi:type="star"
       style="opacity:1;fill:#808080;fill-opacity:1;stroke:#000000;stroke-width:4;stroke-miterlimit:4;stroke-dasharray:none;stroke-opacity:1"
       id="path5370"
       sodipodi:sides="15"
       sodipodi:cx="401.42856"
       sodipodi:cy="732.8009"
       sodipodi:r1="67.385582"
       sodipodi:r2="65.91304"
       sodipodi:arg1="0.52359878"
       sodipodi:arg2="0.73303829"
       inkscape:flatsided="true"
       inkscape:rounded="0.2"
       inkscape:randomized="0.2"
       d="m 464.04716,754.35501 c -3.36143,4.63435 -28.73328,35.84258 -32.23694,40.45227 -3.50367,4.60969 -15.27572,6.52964 -20.90333,8.42297 -5.62761,1.89333 -27.47497,-13.31373 -33.19739,-14.99683 -5.72243,-1.6831 -18.17831,-12.29137 -23.00834,-14.14688 -4.83003,-1.85551 0.5218,-9.73221 -3.16383,-13.73124 -3.68562,-3.99903 -10.74046,-4.87725 -10.18718,-10.21145 0.55328,-5.3342 -15.3738,-29.82509 -13.3212,-34.7273 2.05259,-4.9022 7.39251,-32.02445 11.4071,-36.01303 4.0146,-3.98858 38.09635,2.90614 44.01332,1.78132 5.91696,-1.12481 21.65468,-25.68914 26.79832,-25.9387 5.14364,-0.24957 15.95884,24.46996 20.47336,28.30444 4.51452,3.83448 13.01004,4.55865 17.05908,7.76716 4.04905,3.20852 6.72356,6.14978 6.97073,11.65774 0.24716,5.50795 20.57428,21.2239 18.87143,25.98987 -1.70284,4.76598 -6.2137,20.7553 -9.57513,25.38966 z"
       transform="translate(50,83.847016)"
       inkscape:transform-center-x="0.64366395"
       inkscape:transform-center-y="-3.4822257" />
    <path
       sodipodi:type="star"
       style="opacity:1;fill:#808080;fill-opacity:1;stroke:#000000;stroke-width:4;stroke-miterlimit:4;stroke-dasharray:none;stroke-opacity:1"
       id="path5372"
       sodipodi:sides="15"
       sodipodi:cx="692.85712"
       sodipodi:cy="582.8009"
       sodipodi:r1="98.031647"
       sodipodi:r2="95.88942"
       sodipodi:arg1="0.78539816"
       sodipodi:arg2="0.99483767"
       inkscape:flatsided="true"
       inkscape:rounded="0.2"
       inkscape:randomized="0.2"
       d="m 778.31726,660.4585 c -4.94286,6.01387 -49.94023,-1.03585 -56.0749,3.81825 -6.13467,4.85409 -32.84921,-3.04888 -40.62036,-3.0393 -7.77114,0.01 -8.16089,21.18305 -15.27709,16.35564 -7.1162,-4.82742 -45.05993,-25.02747 -49.16853,-32.21136 -4.10861,-7.18389 -20.43584,-31.94787 -20.91194,-40.20978 -0.4761,-8.26191 3.81666,-40.6818 7.44297,-48.25817 3.62632,-7.57637 19.2155,-37.01116 25.56789,-42.44207 6.35239,-5.4309 17.90133,-15.77244 23.1625,-22.1995 5.26117,-6.42706 6.25117,4.62771 14.21241,1.59867 7.96123,-3.02904 39.88658,-1.48865 47.05747,0.14537 7.17088,1.63402 36.90763,24.30095 42.73979,29.6891 5.83216,5.38816 37.2631,20.05787 42.46229,26.98468 5.19918,6.9268 -8.10326,1.62402 -7.88478,10.18568 0.21848,8.56166 -7.64026,59.16505 -10.06732,66.19137 -2.42706,7.02631 2.30246,27.37755 -2.6404,33.39142 z"
       transform="translate(-25.714287,258.13272)"
       inkscape:transform-center-x="-5.3150008"
       inkscape:transform-center-y="2.7129109" />
    <path
       sodipodi:type="star"
       style="opacity:1;fill:#999999;fill-opacity:1;stroke:#000000;stroke-width:4;stroke-miterlimit:4;stroke-dasharray:none;stroke-opacity:1"
       id="path5374"
       sodipodi:sides="15"
       sodipodi:cx="698.57141"
       sodipodi:cy="259.94376"
       sodipodi:r1="66.455444"
       sodipodi:r2="65.003235"
       sodipodi:arg1="1.0471976"
       sodipodi:arg2="1.2566371"
       inkscape:flatsided="true"
       inkscape:rounded="0.2"
       inkscape:randomized="0.2"
       d="m 729.45498,321.39282 c -3.66543,3.79863 -25.8323,9.31296 -31.74321,9.82377 -5.91091,0.51081 -7.04422,-8.74344 -12.94265,-8.83332 -5.89843,-0.0899 -16.75126,-12.56935 -20.13487,-16.90588 -3.38362,-4.33653 -24.4643,-11.57643 -26.00201,-17.30444 -1.53771,-5.72801 2.45224,-34.92041 3.96186,-40.38573 1.50962,-5.46532 -6.61116,0.9492 -4.12644,-3.81345 2.48473,-4.76266 23.00101,-33.88783 26.10846,-38.82547 3.10744,-4.93764 14.85624,-11.51117 20.25029,-13.50036 5.39404,-1.98919 7.9569,2.16344 12.77294,4.17934 4.81604,2.0159 27.22409,-7.38594 31.75304,-4.79566 4.52895,2.59028 15.79428,21.611 19.93557,25.09546 4.14128,3.48447 15.20093,27.81014 15.51252,32.93257 0.31158,5.12243 2.32778,22.92421 -0.11585,27.46293 -2.44362,4.53872 -12.09933,26.35024 -15.44883,30.79463 -3.34949,4.44439 -16.1154,10.27699 -19.78082,14.07561 z"
       transform="translate(-122.85714,80.989878)"
       inkscape:transform-center-x="-3.3631485"
       inkscape:transform-center-y="0.96299657" />
    <path
       sodipodi:type="star"
       style="opacity:1;fill:#999999;fill-opacity:1;stroke:#000000;stroke-width:4;stroke-miterlimit:4;stroke-dasharray:none;stroke-opacity:1"
       id="path5376"
       sodipodi:sides="15"
       sodipodi:cx="515.71429"
       sodipodi:cy="58.515179"
       sodipodi:r1="42.015545"
       sodipodi:r2="41.097404"
       sodipodi:arg1="0.52359878"
       sodipodi:arg2="0.73303829"
       inkscape:flatsided="true"
       inkscape:rounded="0.2"
       inkscape:randomized="0.2"
       d="m 544.43416,80.986469 c -1.0664,3.31122 3.57697,7.669693 0.30691,8.857889 -3.27006,1.188195 -15.45571,3.77869 -19.22825,4.178602 -3.77253,0.399913 -21.88294,8.84472 -25.03712,7.7302 -3.15418,-1.11451 1.17388,0.89189 -1.23278,-1.61084 -2.40667,-2.502727 -16.18257,-12.896179 -17.29181,-16.388836 -1.10923,-3.492657 -11.49821,-15.146482 -12.84097,-18.271249 -1.34276,-3.124768 10.55438,-10.970799 12.08656,-14.334345 1.53217,-3.363545 -0.41657,-22.489913 1.58478,-24.957602 2.00136,-2.467689 4.72473,-4.623716 8.46765,-5.233978 3.74293,-0.610262 16.86641,-9.241232 19.98744,-8.476556 3.12103,0.764676 17.67307,8.407885 20.98912,9.849293 3.31605,1.441409 7.38514,7.313497 8.83305,10.261791 1.44791,2.948293 19.72204,15.436127 21.77828,18.573209 2.05624,3.137081 3.00147,9.79187 1.98797,13.123166 -1.01349,3.331296 -19.32443,13.388037 -20.39083,16.699256 z"
       transform="translate(-92.857142,180.98988)"
       inkscape:transform-center-x="-1.4052425"
       inkscape:transform-center-y="-1.3720514" />
    <path
       sodipodi:type="star"
       style="opacity:1;fill:#999999;fill-opacity:1;stroke:#000000;stroke-width:4;stroke-miterlimit:4;stroke-dasharray:none;stroke-opacity:1"
       id="path5378"
       sodipodi:sides="15"
       sodipodi:cx="247.14285"
       sodipodi:cy="412.8009"
       sodipodi:r1="62.662037"
       sodipodi:r2="61.292721"
       sodipodi:arg1="0.78539816"
       sodipodi:arg2="0.99483767"
       inkscape:flatsided="true"
       inkscape:rounded="0.2"
       inkscape:randomized="0.2"
       d="m 294.5828,466.46241 c -2.58389,4.27966 -10.06467,-5.90711 -14.85562,-5.08871 -4.79094,0.81841 -40.40049,22.25931 -45.12223,22.43772 -4.72174,0.17842 -17.66293,-9.15611 -22.02046,-12.65998 -4.35753,-3.50388 -7.56471,-7.16785 -11.80456,-10.72234 -4.23986,-3.55449 -13.06872,-21.73037 -13.43157,-27.3165 -0.36286,-5.58612 -14.55964,-32.57618 -13.97193,-38.08776 0.58771,-5.51159 16.2886,-24.26351 19.11446,-28.34471 2.82585,-4.0812 4.74543,4.64481 9.72304,2.10441 4.97761,-2.54039 30.54751,-24.17974 35.37745,-24.02299 4.82995,0.15676 8.79709,8.64006 14.07677,8.82965 5.27969,0.1896 19.18536,4.6563 24.0114,6.52702 4.82603,1.87072 30.99245,24.23977 32.17515,29.06063 1.1827,4.82085 1.30195,13.82015 1.01295,19.30911 -0.28901,5.48897 2.83157,24.18266 0.1415,28.72693 -2.69008,4.54426 -11.84246,24.96787 -14.42635,29.24752 z"
       transform="translate(-20,170.98988)"
       inkscape:transform-center-x="5.4082346"
       inkscape:transform-center-y="1.4864222" />
    <path
       sodipodi:type="star"
       style="opacity:1;fill:#808080;fill-opacity:1;stroke:#000000;stroke-width:4;stroke-miterlimit:4;stroke-dasharray:none;stroke-opacity:1"
       id="path5380"
       sodipodi:sides="15"
       sodipodi:cx="601.42859"
       sodipodi:cy="341.37231"
       sodipodi:r1="136.82254"
       sodipodi:r2="133.83264"
       sodipodi:arg1="0.70409629"
       sodipodi:arg2="0.9135358"
       inkscape:flatsided="true"
       inkscape:rounded="0.2"
       inkscape:randomized="0.2"
       d="m 697.29184,413.71572 c -6.36761,8.02299 -12.64996,38.60608 -22.31161,44.32102 -9.66165,5.71494 -39.03649,18.21883 -49.78509,21.32076 -10.7486,3.10194 -91.81642,-16.82565 -101.52867,-20.31061 -9.71225,-3.48496 -17.34066,8.31614 -25.03041,-0.80975 -7.68976,-9.12589 -21.37185,-53.46922 -22.19803,-64.68328 -0.82618,-11.21406 2.87694,-66.88769 2.25437,-79.18704 -0.62258,-12.29935 10.01655,-35.38724 17.57791,-43.10785 7.56136,-7.72062 7.21779,-34.80175 16.76065,-41.48283 9.54287,-6.68107 51.93124,-43.88506 62.159,-44.657 10.22776,-0.77194 55.60273,30.58111 65.75013,33.9434 10.1474,3.3623 34.92541,-16.49462 43.79475,-11.22527 8.86934,5.26934 46.17754,55.31044 49.73134,65.99157 3.5538,10.68114 -19.31801,10.61587 -15.01798,22.22922 4.30003,11.61335 32.55761,88.35054 31.66678,99.72856 -0.89082,11.37802 -47.45553,9.90611 -53.82314,17.9291 z"
       transform="translate(115.71429,200.98987)"
       inkscape:transform-center-x="-12.297802"
       inkscape:transform-center-y="-8.977701" />
  </g>
</svg>
